<?xml version="1.0" encoding="utf-8"?>
<!-- Generator: Adobe Illustrator 19.1.0, SVG Export Plug-In . SVG Version: 6.00 Build 0)  -->
<svg version="1.1" id="Capa_1" xmlns="http://www.w3.org/2000/svg" xmlns:xlink="http://www.w3.org/1999/xlink" x="0px" y="0px"
	 viewBox="0 0 537.7 80.2" enable-background="new 0 0 537.7 80.2" xml:space="preserve">
<g>
	<g>
		<g>
			<path fill="#44C6E9" d="M202.9,28.2c-2.6-2.9-6.3-4.4-10.7-4.4c0,0,0,0-0.1,0c-5.7,0-10.1,2.5-13.3,7.5
				c-1.7-3.1-5.3-7.4-12.5-7.4c0,0,0,0-0.1,0c-6.1,0-9.5,3.2-11.8,6.3l0-3.4c0-1.3-1-2.3-2.3-2.3c0,0,0,0,0,0c-1.3,0-2.2,1-2.2,2.3
				l0.1,33.9c0,0.7,0.2,1.2,0.7,1.7c0.4,0.4,1,0.6,1.6,0.6c0,0,0,0,0,0c0.6,0,1.2-0.2,1.6-0.7c0.4-0.4,0.6-1,0.6-1.7L154.6,41
				c0-7.2,4.9-12.8,11.3-12.8c6.4,0,10.3,4.5,10.3,11.9l0.1,20.6c0,0.7,0.2,1.2,0.7,1.7c0.4,0.4,1,0.6,1.6,0.6c0,0,0,0,0,0
				c0.6,0,1.2-0.2,1.6-0.7c0.4-0.4,0.6-1,0.6-1.7l-0.1-20c0-3.8,1.1-7,3.3-9.3c2-2.1,4.8-3.3,7.8-3.3c0,0,0,0,0,0
				c6.5,0,10.4,4.5,10.4,12.1l0.1,20.4c0,0.7,0.2,1.2,0.7,1.7c0.4,0.4,1,0.6,1.6,0.6c0,0,0,0,0,0c0.6,0,1.2-0.2,1.6-0.7
				s0.6-1,0.6-1.7l-0.1-20.9C206.9,35.1,205.5,31.1,202.9,28.2z"/>
			<path fill="#44C6E9" d="M246.6,28.2c-2.8-2.7-6.9-4.2-12-4.2c-4.2,0-7.9,0.9-12.3,2.8c-0.5,0.2-1.3,1-1.3,2.1
				c0,1.2,1,2.2,2.2,2.2c0,0,0,0,0,0c0.3,0,0.7-0.1,1-0.3c3.5-1.7,6.7-2.4,10.3-2.5c0,0,0.1,0,0.1,0c7.5,0,11.6,3.8,11.6,10.8l0,0.9
				c-3-0.8-6.6-1.4-11.7-1.4c-4.9,0-9,1.1-11.9,3.3c-3.1,2.2-4.7,5.4-4.7,9.3l0,0.1c0,6,5.1,12,14.7,12c0,0,0.1,0,0.1,0
				c7.1,0,11.3-3.4,13.6-6.1l0,3.2c0,1.3,0.9,2.3,2.2,2.3c0,0,0,0,0,0c0.6,0,1.2-0.2,1.6-0.7c0.4-0.4,0.6-1,0.6-1.7L250.6,39
				C250.5,34.3,249.3,30.8,246.6,28.2z M222.5,51c0-2.4,1-4.4,2.9-5.8c2-1.5,5-2.3,8.7-2.3c0.1,0,0.1,0,0.2,0c5,0,8.9,0.8,11.9,1.5
				l0,3.8c0,6.2-5.8,10.9-13.4,10.9c0,0,0,0-0.1,0c-2.7,0-5.3-0.7-7.1-2.1c-2-1.5-3-3.5-3.1-5.8L222.5,51z"/>
			<path fill="#44C6E9" d="M292.7,28c-2.7-2.9-6.6-4.5-11.3-4.4c-5.5,0-9.8,2.2-12.8,6.6l0-3.6c0-1.3-1-2.3-2.3-2.3c0,0,0,0,0,0
				c-1.3,0-2.2,1-2.2,2.3l0.1,33.9c0,1.3,1,2.3,2.3,2.3c0,0,0,0,0,0c1.3,0,2.2-1,2.2-2.3l-0.1-19.8c0-7.2,5.3-12.7,12.3-12.7
				c0,0,0,0,0.1,0c7,0,11.2,4.5,11.2,12.1l0.1,20.4c0,0.7,0.2,1.2,0.7,1.7c0.4,0.4,1,0.6,1.6,0.6c0,0,0,0,0,0c0.6,0,1.2-0.2,1.6-0.7
				s0.6-1,0.6-1.7l-0.1-21.1C296.8,34.7,295.4,30.8,292.7,28z"/>
			<path fill="#44C6E9" d="M327.4,23.4C327.3,23.4,327.3,23.4,327.4,23.4c-5.4,0-10.4,2.1-14.1,6c-3.6,3.7-5.5,8.7-5.5,13.9l0,0.1
				c0,11,8.6,19.6,19.4,19.6c0,0,0,0,0.1,0c11,0,19.5-8.8,19.5-19.9l0-0.1C346.7,32,338.2,23.4,327.4,23.4z M341.9,43.3
				c0,4.1-1.4,8-4.1,10.9c-2.7,2.9-6.4,4.5-10.4,4.5c0,0,0,0-0.1,0c-8.2,0-14.7-6.8-14.7-15.5l0-0.1c0-4.1,1.4-8,4.1-10.9
				c2.7-2.9,6.4-4.5,10.4-4.5c0,0,0,0,0.1,0c4,0,7.7,1.6,10.4,4.5c2.8,2.9,4.3,6.8,4.3,11L341.9,43.3z"/>
			<path fill="#44C6E9" d="M384.2,51.3c0-6.8-6.2-9-12.6-10.8c-5.8-1.7-9.9-3.1-9.9-6.7l0-0.1c0-1.7,0.7-3.1,2.1-4.2
				c1.4-1.1,3.4-1.7,5.8-1.8c3.3,0,6.7,1,10,2.9c0.2,0.1,0.6,0.4,1.3,0.4c0.6,0,1.1-0.2,1.6-0.7c0.4-0.4,0.7-1,0.7-1.6
				c0-0.8-0.4-1.5-1.2-2c-3.7-2.1-8.2-3.4-12.1-3.4c0,0,0,0-0.1,0c-7.5,0-12.7,4.5-12.6,10.8l0,0.1c0,6.9,6.8,8.8,12.8,10.5l0.3,0.1
				c5.2,1.4,9.4,2.9,9.4,6.9l0,0.1c0,1.9-0.8,3.5-2.4,4.7c-1.5,1.2-3.7,1.8-6,1.8c0,0,0,0-0.1,0c-4.2,0-8.1-1.3-12-4.1
				c-0.4-0.3-0.9-0.4-1.5-0.5c-0.6,0-1.1,0.2-1.6,0.7c-0.4,0.4-0.7,1-0.7,1.6c0,0.7,0.4,1.5,0.9,1.8c3.9,2.9,9.7,4.8,14.6,4.8
				c0,0,0,0,0.1,0c3.6,0,6.9-1.1,9.3-3.1c2.5-2.1,3.9-4.9,3.9-8.3L384.2,51.3z"/>
		</g>
		<g>
			<path fill="#FFFFFF" d="M415.6,23.1C415.5,23.1,415.5,23.1,415.6,23.1c-5.9,0-10.8,2.7-14.7,8.1l0-5.1c0-1.3-1-2.3-2.3-2.3
				c0,0,0,0,0,0c-1.3,0-2.2,1-2.2,2.3l0.2,45.5c0,1.3,1,2.3,2.3,2.3c0,0,0,0,0,0c1.3,0,2.2-1,2.2-2.3l-0.1-16.4
				c3.8,5.1,8.8,7.7,14.7,7.7c4.6,0,9.2-2,12.7-5.4c3.7-3.7,5.8-8.9,5.7-14.6l0-0.1C434,30.4,424.6,23.1,415.6,23.1z M429.2,43
				c0,4.6-1.4,8.5-4,11.3c-2.5,2.6-6,4-9.9,4.1c0,0,0,0-0.1,0c-9,0-14.5-7.9-14.6-15.3l0-0.1c0-9.5,7.5-15.4,14.5-15.4
				c0,0,0,0,0.1,0c3.7,0,7.2,1.5,9.8,4.1c2.7,2.8,4.2,6.8,4.2,11.2L429.2,43z"/>
			<path fill="#FFFFFF" d="M448.6,7.6C448.5,7.6,448.5,7.6,448.6,7.6L448.6,7.6c-0.6,0-1.2,0.2-1.6,0.7c-0.4,0.4-0.6,1-0.6,1.6
				l0.2,49.8c0,1.3,1,2.3,2.3,2.3c0,0,0,0,0,0c1.3,0,2.2-1,2.2-2.3l-0.2-49.8C450.9,8.6,449.8,7.6,448.6,7.6z"/>
			<path fill="#FFFFFF" d="M497,24c-0.4-0.4-1-0.6-1.6-0.6c0,0,0,0,0,0c-0.6,0-1.2,0.2-1.6,0.7c-0.4,0.4-0.6,1-0.6,1.7l0.1,19.8
				c0,7.2-5.3,12.7-12.3,12.7c-3.5,0-6.3-1.1-8.3-3.3c-1.9-2.1-3-5.2-3-8.8l-0.1-20.4c0-1.3-1-2.3-2.3-2.3c-1.3,0-2.2,1-2.2,2.3
				l0.1,21.1c0,9.5,6,15.7,15.3,15.7c0,0,0,0,0.1,0c5.5,0,9.8-2.2,12.8-6.6l0,3.6c0,0.7,0.2,1.2,0.7,1.7c0.4,0.4,1,0.6,1.6,0.6
				c0,0,0,0,0,0c1.3,0,2.2-1,2.2-2.3l-0.1-33.9C497.6,25,497.4,24.4,497,24z"/>
			<path fill="#FFFFFF" d="M537.7,50.7c0-6.8-6.2-9-12.6-10.8c-5.8-1.7-9.9-3.1-9.9-6.7l0-0.1c0-1.7,0.7-3.1,2.1-4.2
				c1.4-1.1,3.4-1.7,5.8-1.8c0,0,0,0,0.1,0c3.3,0,6.7,1,10,2.9c0.2,0.1,0.6,0.4,1.3,0.4c0,0,0,0,0,0c0.6,0,1.1-0.2,1.6-0.7
				c0.4-0.4,0.7-1,0.7-1.6c0-0.8-0.4-1.5-1.2-2c-3.7-2.1-8.3-3.3-12.2-3.4c-7.5,0-12.7,4.5-12.6,10.8l0,0.1c0,6.9,6.8,8.8,12.8,10.5
				l0.3,0.1c5.2,1.4,9.4,2.9,9.4,6.9l0,0.1c0,3.8-3.4,6.5-8.4,6.6c0,0,0,0-0.1,0c-4.2,0-8.1-1.3-12-4.1c-0.4-0.3-1-0.5-1.5-0.5
				c-0.6,0-1.1,0.2-1.6,0.7c-0.4,0.4-0.7,1-0.7,1.6c0,0.7,0.4,1.5,0.9,1.8c3.9,2.9,9.7,4.8,14.6,4.8c0,0,0,0,0.1,0
				c3.6,0,6.9-1.1,9.3-3.1c2.5-2.1,3.9-4.9,3.9-8.3L537.7,50.7z"/>
		</g>
	</g>
	<g id="Simbolo_1_">
		<g>
			<path fill="#FFFFFF" d="M92,17.7H67.6c-2.6,0-4.7,1.9-4.7,4.1v54.2c0,2.3,2.1,4.1,4.7,4.1c2.6,0,4.7-1.9,4.7-4.1V64H92
				c3,0,10.9-0.4,17.6-4.5c6.8-4.1,10.4-10.5,10.4-18.5C120,25,105.5,17.7,92,17.7z M92,55.3H72.3V26.4H92c1.9,0,18.7,0.4,18.7,14.7
				C110.7,54.6,95.1,55.3,92,55.3z"/>
			<g>
				<path fill="#EF6246" d="M32.3,70.9c-2.6,0-4.7,2.1-4.7,4.7c0,2.6,2.1,4.7,4.7,4.7h21.3v-9.3H32.3z"/>
				<path fill="#089D49" d="M11.3,53.1c-2.6,0-4.7,2.1-4.7,4.7c0,2.6,2.1,4.7,4.7,4.7h42.3v-9.3H11.3z"/>
				<path fill="#FFCD0A" d="M4.7,35.4c-2.6,0-4.7,2.1-4.7,4.7c0,2.6,2.1,4.7,4.7,4.7h48.9v-9.3H4.7z"/>
				<path fill="#3DC5F2" d="M19.9,17.7c-2.6,0-4.7,2.1-4.7,4.7s2.1,4.7,4.7,4.7h33.7v-9.3H19.9z"/>
			</g>
		</g>
		<path fill="#FFFFFF" d="M72.1,0H60H41.5c0,5.7,5.9,9.3,11.3,9.3H60h23.4C83.4,3.6,77.5,0,72.1,0z"/>
	</g>
</g>
<g>
</g>
<g>
</g>
<g>
</g>
<g>
</g>
<g>
</g>
<g>
</g>
<g>
</g>
<g>
</g>
<g>
</g>
<g>
</g>
<g>
</g>
<g>
</g>
<g>
</g>
<g>
</g>
<g>
</g>
</svg>
