<?xml version="1.0" encoding="utf-8"?>
<!-- Generator: Adobe Illustrator 19.1.0, SVG Export Plug-In . SVG Version: 6.00 Build 0)  -->
<svg version="1.1" id="Capa_1" xmlns="http://www.w3.org/2000/svg" xmlns:xlink="http://www.w3.org/1999/xlink" x="0px" y="0px"
	 viewBox="0 0 387.9 200" enable-background="new 0 0 387.9 200" xml:space="preserve">
<g>
	<g>
		<g>
			<path fill="#44C6E9" d="M52.9,154.4c-2.6-2.9-6.3-4.4-10.7-4.4c0,0,0,0-0.1,0c-5.7,0-10.1,2.5-13.3,7.5
				c-1.7-3.1-5.3-7.4-12.5-7.4c0,0,0,0-0.1,0c-6.1,0-9.6,3.2-11.8,6.3l0-3.4c0-1.3-1-2.3-2.3-2.3c0,0,0,0,0,0c-1.3,0-2.2,1-2.2,2.3
				L0.1,187c0,0.7,0.2,1.2,0.7,1.7c0.4,0.4,1,0.6,1.6,0.6c0,0,0,0,0,0c0.6,0,1.2-0.2,1.6-0.7c0.4-0.4,0.6-1,0.6-1.7l-0.1-19.8
				c0-7.2,4.9-12.8,11.3-12.8c6.4,0,10.3,4.5,10.3,11.9l0.1,20.7c0,0.7,0.2,1.2,0.7,1.7c0.4,0.4,1,0.6,1.6,0.6c0,0,0,0,0,0
				c0.6,0,1.2-0.2,1.6-0.7c0.4-0.4,0.6-1,0.6-1.7l-0.1-20c0-3.8,1.1-7,3.3-9.3c2-2.1,4.8-3.3,7.8-3.3c0,0,0,0,0,0
				c6.5,0,10.4,4.5,10.4,12.1l0.1,20.4c0,0.7,0.2,1.2,0.7,1.7c0.4,0.4,1,0.6,1.6,0.6c0,0,0,0,0,0c0.6,0,1.2-0.2,1.6-0.7
				c0.4-0.4,0.6-1,0.6-1.7l-0.1-20.9C56.9,161.2,55.5,157.2,52.9,154.4z"/>
			<path fill="#44C6E9" d="M96.6,154.3c-2.8-2.7-6.9-4.2-12-4.2c-4.2,0-7.9,0.9-12.3,2.8c-0.5,0.2-1.3,1-1.3,2.1
				c0,1.2,1,2.2,2.2,2.2c0,0,0,0,0,0c0.3,0,0.7-0.1,1-0.3c3.5-1.7,6.7-2.4,10.3-2.5c0,0,0.1,0,0.1,0c7.5,0,11.6,3.8,11.6,10.8l0,0.9
				c-3-0.8-6.6-1.4-11.8-1.4c-4.9,0-9,1.1-11.9,3.3c-3.1,2.2-4.7,5.4-4.7,9.3l0,0.1c0,6,5.1,12,14.7,12c0,0,0.1,0,0.1,0
				c7.1,0,11.3-3.4,13.6-6.1l0,3.2c0,1.3,0.9,2.3,2.2,2.3c0,0,0,0,0,0c0.6,0,1.2-0.2,1.6-0.7c0.4-0.4,0.6-1,0.6-1.7l-0.1-21.5
				C100.6,160.5,99.3,157,96.6,154.3z M72.5,177.2c0-2.4,1-4.4,2.9-5.8c2-1.5,5.1-2.3,8.7-2.3c0.1,0,0.1,0,0.2,0
				c5,0,8.9,0.8,11.9,1.5l0,3.8c0,6.2-5.8,10.9-13.4,10.9c0,0,0,0-0.1,0c-2.7,0-5.3-0.7-7.1-2.1c-2-1.5-3.1-3.5-3.1-5.8L72.5,177.2z
				"/>
			<path fill="#44C6E9" d="M142.8,154.1c-2.7-2.9-6.6-4.5-11.3-4.4c-5.5,0-9.8,2.2-12.8,6.6l0-3.6c0-1.3-1-2.3-2.3-2.3c0,0,0,0,0,0
				c-1.3,0-2.2,1-2.2,2.3l0.1,33.9c0,1.3,1,2.3,2.3,2.3c0,0,0,0,0,0c1.3,0,2.2-1,2.2-2.3l-0.1-19.9c0-7.2,5.3-12.7,12.3-12.7
				c0,0,0,0,0.1,0c7,0,11.2,4.5,11.2,12.1l0.1,20.4c0,0.7,0.2,1.2,0.7,1.7c0.4,0.4,1,0.6,1.6,0.6c0,0,0,0,0,0c0.6,0,1.2-0.2,1.6-0.7
				c0.4-0.4,0.6-1,0.6-1.7l-0.1-21.1C146.8,160.8,145.4,156.9,142.8,154.1z"/>
			<path fill="#44C6E9" d="M177.4,149.5C177.4,149.5,177.4,149.5,177.4,149.5c-5.4,0-10.4,2.1-14.1,6c-3.6,3.7-5.5,8.7-5.5,13.9
				l0,0.1c0,11,8.6,19.6,19.4,19.6c0,0,0,0,0.1,0c11,0,19.5-8.8,19.5-19.9l0-0.1C196.8,158.2,188.3,149.5,177.4,149.5z M192,169.5
				c0,4.1-1.4,8-4.1,10.9c-2.7,2.9-6.4,4.5-10.4,4.6c0,0,0,0-0.1,0c-8.2,0-14.7-6.8-14.7-15.5l0-0.1c0-4.1,1.4-8,4.1-10.9
				c2.7-2.9,6.4-4.5,10.4-4.6c0,0,0,0,0.1,0c4,0,7.7,1.6,10.4,4.5c2.8,2.9,4.3,6.8,4.3,11L192,169.5z"/>
			<path fill="#44C6E9" d="M234.3,177.5c0-6.8-6.2-9-12.6-10.8c-5.8-1.7-9.9-3.1-10-6.7l0-0.1c0-1.7,0.7-3.1,2.1-4.2
				c1.4-1.1,3.4-1.7,5.8-1.8c3.3,0,6.7,1,10,2.9c0.2,0.1,0.6,0.4,1.3,0.4c0.6,0,1.1-0.2,1.6-0.7c0.4-0.4,0.7-1,0.7-1.6
				c0-0.8-0.4-1.5-1.2-2c-3.7-2.1-8.2-3.4-12.1-3.4c0,0,0,0-0.1,0c-7.5,0-12.7,4.5-12.6,10.8l0,0.1c0,6.9,6.8,8.8,12.8,10.5l0.3,0.1
				c5.2,1.4,9.4,2.9,9.4,6.9l0,0.1c0,1.9-0.8,3.5-2.4,4.7c-1.5,1.2-3.7,1.8-6,1.8c0,0,0,0-0.1,0c-4.2,0-8.1-1.3-12-4.1
				c-0.4-0.3-0.9-0.4-1.5-0.5c-0.6,0-1.1,0.2-1.6,0.7c-0.4,0.4-0.7,1-0.7,1.6c0,0.7,0.4,1.5,0.9,1.8c3.9,2.9,9.7,4.8,14.6,4.8
				c0,0,0,0,0.1,0c3.6,0,6.9-1.1,9.3-3.1c2.5-2.1,3.9-4.9,3.9-8.3L234.3,177.5z"/>
		</g>
		<g>
			<path fill="#FFFFFF" d="M265.7,149.2C265.6,149.2,265.6,149.2,265.7,149.2c-5.9,0-10.8,2.7-14.7,8.1l0-5.1c0-1.3-1-2.3-2.3-2.3
				c0,0,0,0,0,0c-1.3,0-2.2,1-2.2,2.3l0.2,45.5c0,1.3,1,2.3,2.3,2.3c0,0,0,0,0,0c1.3,0,2.2-1,2.2-2.3l-0.1-16.5
				c3.8,5.1,8.8,7.7,14.7,7.7c4.6,0,9.3-2,12.7-5.4c3.7-3.7,5.8-8.9,5.7-14.6l0-0.1C284.1,156.6,274.7,149.2,265.7,149.2z
				 M279.3,169.2c0,4.6-1.4,8.5-4,11.3c-2.5,2.6-6,4-9.9,4.1c0,0,0,0-0.1,0c-9,0-14.5-7.9-14.6-15.3l0-0.1c0-9.5,7.5-15.4,14.5-15.4
				c0,0,0,0,0.1,0c3.7,0,7.2,1.5,9.8,4.1c2.7,2.8,4.2,6.8,4.2,11.3L279.3,169.2z"/>
			<path fill="#FFFFFF" d="M298.7,133.8C298.7,133.8,298.7,133.8,298.7,133.8L298.7,133.8c-0.6,0-1.2,0.2-1.6,0.7
				c-0.4,0.4-0.6,1-0.6,1.6l0.2,49.9c0,1.3,1,2.3,2.3,2.3c0,0,0,0,0,0c1.3,0,2.2-1,2.2-2.3l-0.2-49.9
				C301,134.8,300,133.8,298.7,133.8z"/>
			<path fill="#FFFFFF" d="M347.1,150.2c-0.4-0.4-1-0.6-1.6-0.6c0,0,0,0,0,0c-0.6,0-1.2,0.2-1.6,0.7c-0.4,0.4-0.6,1-0.6,1.7
				l0.1,19.9c0,7.2-5.3,12.7-12.3,12.7c-3.5,0-6.3-1.1-8.3-3.3c-1.9-2.1-3-5.2-3-8.8l-0.1-20.4c0-1.3-1-2.3-2.3-2.3
				c-1.3,0-2.2,1-2.2,2.3l0.1,21.1c0,9.5,6,15.7,15.3,15.7c0,0,0,0,0.1,0c5.5,0,9.8-2.2,12.8-6.6l0,3.6c0,0.7,0.2,1.2,0.7,1.7
				c0.4,0.4,1,0.6,1.6,0.6c0,0,0,0,0,0c1.3,0,2.2-1,2.2-2.3l-0.1-33.9C347.8,151.2,347.5,150.6,347.1,150.2z"/>
			<path fill="#FFFFFF" d="M387.9,176.9c0-6.8-6.2-9-12.6-10.8c-5.8-1.7-9.9-3.1-10-6.7l0-0.1c0-1.7,0.7-3.1,2.1-4.2
				c1.4-1.1,3.4-1.7,5.8-1.8c0,0,0,0,0.1,0c3.3,0,6.7,1,10,2.9c0.2,0.1,0.6,0.4,1.3,0.4c0,0,0,0,0,0c0.6,0,1.1-0.2,1.6-0.7
				c0.4-0.4,0.7-1,0.7-1.6c0-0.8-0.4-1.5-1.2-2c-3.7-2.1-8.3-3.3-12.2-3.4c-7.5,0-12.7,4.5-12.6,10.8l0,0.1c0,6.9,6.8,8.8,12.8,10.5
				l0.3,0.1c5.2,1.4,9.4,2.9,9.4,6.9l0,0.1c0,3.8-3.4,6.5-8.4,6.6c0,0,0,0-0.1,0c-4.2,0-8.1-1.3-12-4.1c-0.4-0.3-1-0.5-1.5-0.5
				c-0.6,0-1.1,0.2-1.6,0.7c-0.4,0.4-0.7,1-0.7,1.6c0,0.7,0.4,1.5,0.9,1.8c3.9,2.9,9.7,4.8,14.6,4.8c0,0,0,0,0.1,0
				c3.6,0,6.9-1.1,9.3-3.1c2.5-2.1,3.9-4.9,3.9-8.3L387.9,176.9z"/>
		</g>
	</g>
	<g id="Simbolo_1_">
		<g>
			<path fill="#FFFFFF" d="M236.6,23.6h-32.5c-3.4,0-6.2,2.5-6.2,5.5v72.3c0,3,2.8,5.5,6.2,5.5c3.4,0,6.2-2.5,6.2-5.5V85.4h26.3
				c4.1,0,14.5-0.6,23.5-6c9.1-5.4,13.9-14,13.9-24.6C274,33.4,254.6,23.6,236.6,23.6z M236.6,73.8h-26.3V35.2h26.3
				c2.6,0,24.9,0.5,24.9,19.6C261.5,72.9,240.7,73.8,236.6,73.8z"/>
			<g>
				<path fill="#EF6246" d="M156.9,94.5c-3.4,0-6.2,2.8-6.2,6.2c0,3.4,2.8,6.2,6.2,6.2h28.5V94.5H156.9z"/>
				<path fill="#089D49" d="M129,70.9c-3.4,0-6.2,2.8-6.2,6.2c0,3.4,2.8,6.2,6.2,6.2h56.4V70.9H129z"/>
				<path fill="#FFCD0A" d="M120.1,47.3c-3.4,0-6.2,2.8-6.2,6.2c0,3.4,2.8,6.2,6.2,6.2h65.3V47.3H120.1z"/>
				<path fill="#3DC5F2" d="M140.4,23.6c-3.4,0-6.2,2.8-6.2,6.2c0,3.4,2.8,6.2,6.2,6.2h45V23.6H140.4z"/>
			</g>
		</g>
		<path fill="#FFFFFF" d="M210,0h-16.1h-24.7c0,7.6,7.9,12.5,15.1,12.5h9.7h31.2C225.1,4.8,217.2,0,210,0z"/>
	</g>
</g>
<g>
</g>
<g>
</g>
<g>
</g>
<g>
</g>
<g>
</g>
<g>
</g>
<g>
</g>
<g>
</g>
<g>
</g>
<g>
</g>
<g>
</g>
<g>
</g>
<g>
</g>
<g>
</g>
<g>
</g>
</svg>
